<?xml version="1.0" encoding="utf-8"?>
<!-- Generator: Adobe Illustrator 14.0.0, SVG Export Plug-In . SVG Version: 6.00 Build 43363)  -->
<!DOCTYPE svg PUBLIC "-//W3C//DTD SVG 1.1//EN" "http://www.w3.org/Graphics/SVG/1.1/DTD/svg11.dtd">
<svg version="1.1" id="Layer_1" xmlns="http://www.w3.org/2000/svg" xmlns:xlink="http://www.w3.org/1999/xlink" x="0px" y="0px"
	 width="150px" height="48px" viewBox="0 0 150 48" enable-background="new 0 0 150 48" xml:space="preserve">
<g opacity="0.21">
	<path fill="#010101" d="M139.714,36.727c0.463,0,0.886-0.022,1.272-0.076c0.388-0.049,0.779-0.109,1.18-0.187v1.685
		c-0.162,0.074-0.374,0.149-0.637,0.226c-0.262,0.075-0.545,0.144-0.854,0.196c-0.307,0.057-0.627,0.101-0.965,0.132
		c-0.336,0.028-0.65,0.047-0.953,0.047c-0.974,0-1.809-0.104-2.508-0.312c-0.699-0.205-1.271-0.539-1.725-1.002
		c-0.447-0.461-0.779-1.068-1-1.832c-0.219-0.762-0.326-1.688-0.326-2.787V20.014h-2.922v-1.535c0.464,0,0.973-0.093,1.525-0.281
		c0.555-0.188,1.045-0.499,1.471-0.935c0.438-0.475,0.787-1.04,1.058-1.694c0.271-0.655,0.503-1.476,0.702-2.461h1.76v4.715h5.018
		v2.19h-5.018v12.913c0,1.309,0.268,2.27,0.794,2.883C138.122,36.419,138.83,36.727,139.714,36.727z"/>
	<path fill="#010101" d="M131.398,36.764c-0.426,0-0.83-0.031-1.219-0.095c-0.388-0.062-0.722-0.188-0.998-0.383
		c-0.283-0.193-0.509-0.472-0.678-0.834c-0.169-0.361-0.252-0.843-0.252-1.441V17.824h-6.634H121.4h-8.24v1.61
		c0.638,0,1.105,0.046,1.413,0.14c0.306,0.094,0.459,0.303,0.459,0.627c0,0.187-0.031,0.384-0.097,0.589
		c-0.062,0.205-0.176,0.44-0.336,0.702c-0.164,0.262-0.379,0.568-0.646,0.917c-0.269,0.35-0.604,0.755-1.021,1.216l-4.791,5.241
		c0.023-0.662,0.049-1.292,0.075-1.892c0.023-0.523,0.043-1.06,0.056-1.603c0.015-0.542,0.021-0.988,0.021-1.338V9.254h-7.056v1.609
		h0.3c0.423,0,0.825,0.028,1.207,0.085c0.381,0.056,0.714,0.177,1,0.365c0.287,0.187,0.519,0.452,0.687,0.794
		c0.168,0.343,0.254,0.796,0.254,1.357V34.01c0,0.6-0.086,1.08-0.254,1.441c-0.168,0.363-0.396,0.641-0.677,0.834
		c-0.278,0.193-0.608,0.32-0.989,0.383c-0.382,0.062-0.789,0.094-1.228,0.094h-0.3v1.608h10.312v-1.608h-0.113
		c-0.424,0-0.826-0.029-1.207-0.084c-0.381-0.056-0.713-0.171-1-0.347c-0.289-0.175-0.518-0.435-0.686-0.776
		c-0.168-0.341-0.252-0.795-0.252-1.354v-3.464l2.824-2.096l3.837,6.006c0.537,0.853,1.021,1.521,1.46,2.016
		c0.438,0.49,0.917,0.863,1.439,1.122c0.521,0.255,1.145,0.419,1.86,0.483c0.375,0.035,0.808,0.062,1.29,0.08v0.022h1.452h0.542
		h8.896v-1.608h-0.504v0.002H131.398z M124.661,34.198c0,0.562-0.083,1.016-0.253,1.356c-0.168,0.342-0.396,0.603-0.682,0.774
		c-0.287,0.176-0.621,0.291-1.002,0.347c-0.121,0.02-0.25,0.027-0.377,0.04c-0.64-0.092-1.218-0.341-1.729-0.76
		c-0.655-0.537-1.312-1.315-1.978-2.34l-5.105-7.579l2.691-3.032c0.998-1.135,1.924-2.015,2.778-2.638
		c0.845-0.617,1.705-0.926,2.58-0.933c0.397,0.003,0.776,0.032,1.134,0.091c0.381,0.063,0.715,0.187,1.002,0.375
		c0.287,0.187,0.516,0.452,0.684,0.795c0.171,0.343,0.254,0.795,0.254,1.355L124.661,34.198L124.661,34.198z"/>
	<path fill="#010101" d="M124.755,13.464c0.199,0.188,0.431,0.322,0.69,0.402c0.265,0.081,0.55,0.122,0.861,0.122
		c0.301,0,0.58-0.041,0.842-0.122c0.263-0.081,0.49-0.215,0.684-0.402s0.35-0.431,0.468-0.73c0.118-0.3,0.179-0.674,0.179-1.123
		c0-0.449-0.061-0.824-0.179-1.123c-0.118-0.299-0.274-0.542-0.468-0.729c-0.193-0.188-0.421-0.318-0.684-0.393
		c-0.262-0.075-0.541-0.112-0.842-0.112c-0.312,0-0.6,0.037-0.861,0.112c-0.262,0.075-0.491,0.206-0.69,0.393
		c-0.2,0.187-0.354,0.43-0.469,0.729c-0.111,0.299-0.168,0.674-0.168,1.123c0,0.449,0.057,0.823,0.168,1.123
		C124.4,13.034,124.555,13.277,124.755,13.464z"/>
	<path fill="#010101" d="M100.775,23.308c-0.342-1.335-0.844-2.436-1.506-3.303c-0.662-0.867-1.479-1.509-2.451-1.927
		c-0.973-0.418-2.09-0.627-3.353-0.627c-0.745,0-1.422,0.09-2.021,0.271c-0.598,0.181-1.135,0.437-1.607,0.767
		c-0.474,0.332-0.895,0.734-1.255,1.208c-0.36,0.474-0.687,1.004-0.974,1.59h-0.148c0.023-0.636,0.051-1.254,0.075-1.852
		c0.022-0.524,0.043-1.07,0.056-1.638c0.014-0.567,0.02-1.069,0.02-1.507V9.254h-7.055v1.609h0.301c0.425,0,0.826,0.028,1.207,0.085
		c0.379,0.056,0.713,0.177,1,0.365c0.287,0.187,0.516,0.452,0.686,0.794c0.166,0.344,0.25,0.796,0.25,1.357V34.01
		c0,0.6-0.084,1.08-0.252,1.441c-0.17,0.363-0.395,0.641-0.676,0.834c-0.279,0.193-0.609,0.32-0.991,0.383
		c-0.365,0.061-0.757,0.09-1.174,0.092c-0.408-0.002-0.765-0.045-1.062-0.129c-0.308-0.087-0.555-0.236-0.738-0.449
		c-0.188-0.211-0.325-0.492-0.412-0.842c-0.088-0.35-0.131-0.792-0.131-1.33v-9.937c0-1.223-0.146-2.254-0.439-3.096
		c-0.293-0.843-0.732-1.526-1.318-2.05c-0.588-0.524-1.314-0.901-2.188-1.132c-0.873-0.23-1.896-0.346-3.069-0.346
		c-0.948,0-1.84,0.068-2.675,0.206c-0.837,0.138-1.57,0.353-2.2,0.645c-0.629,0.294-1.126,0.671-1.487,1.133
		c-0.362,0.461-0.543,1.023-0.543,1.684c0,0.887,0.277,1.511,0.833,1.871c0.556,0.362,1.363,0.543,2.423,0.543
		c0-0.599,0.044-1.153,0.132-1.665c0.086-0.512,0.259-0.955,0.515-1.329c0.256-0.375,0.61-0.664,1.066-0.87
		c0.455-0.206,1.051-0.309,1.787-0.309c0.786,0,1.413,0.115,1.881,0.346c0.468,0.231,0.826,0.555,1.076,0.973
		c0.249,0.418,0.411,0.917,0.486,1.498c0.075,0.581,0.112,1.213,0.112,1.898v2.303l-3.182,0.112
		c-2.932,0.087-5.121,0.623-6.569,1.607c-1.446,0.984-2.17,2.495-2.17,4.527c0,1.048,0.149,1.956,0.449,2.725
		c0.3,0.768,0.714,1.401,1.244,1.906c0.53,0.51,1.161,0.88,1.892,1.124c0.729,0.242,1.518,0.364,2.366,0.364
		c0.799,0,1.48-0.094,2.049-0.271c0.567-0.182,1.076-0.434,1.525-0.758c0.449-0.322,0.861-0.711,1.235-1.16
		c0.373-0.449,0.761-0.941,1.16-1.479h0.318l0.599,3.293h4.688h0.498h5.641l0.674-2.993h0.242c0.273,0.5,0.597,0.954,0.964,1.364
		c0.368,0.41,0.793,0.769,1.272,1.064c0.479,0.301,1.021,0.531,1.617,0.694c0.602,0.161,1.268,0.241,2.004,0.241
		c1.26,0,2.377-0.207,3.35-0.627c0.974-0.418,1.789-1.062,2.451-1.938c0.662-0.873,1.164-1.981,1.508-3.33
		c0.343-1.348,0.515-2.942,0.515-4.791C101.291,26.229,101.119,24.643,100.775,23.308z M74.953,31.055
		c0,0.812-0.119,1.549-0.355,2.211c-0.237,0.659-0.577,1.221-1.021,1.686c-0.442,0.46-0.979,0.814-1.608,1.062
		c-0.629,0.25-1.332,0.375-2.105,0.375c-1.061,0-1.844-0.296-2.349-0.89c-0.506-0.592-0.758-1.488-0.758-2.685
		c0-0.75,0.096-1.41,0.29-1.985c0.192-0.572,0.514-1.058,0.963-1.449c0.449-0.392,1.039-0.696,1.769-0.917
		c0.73-0.218,1.638-0.354,2.723-0.402l2.452-0.109L74.953,31.055L74.953,31.055z M97.305,31.588
		c-0.175,1.03-0.453,1.895-0.832,2.594c-0.382,0.697-0.869,1.227-1.461,1.58c-0.593,0.354-1.312,0.533-2.16,0.533
		c-1.012,0-1.851-0.179-2.519-0.533c-0.667-0.354-1.204-0.883-1.608-1.58c-0.404-0.699-0.689-1.562-0.861-2.584
		c-0.168-1.021-0.252-2.201-0.252-3.537c0-1.384,0.084-2.588,0.252-3.608c0.172-1.023,0.453-1.871,0.854-2.545
		c0.399-0.673,0.935-1.176,1.603-1.507c0.668-0.33,1.5-0.495,2.498-0.495c0.849,0,1.574,0.167,2.181,0.505
		c0.604,0.336,1.099,0.842,1.479,1.516c0.379,0.673,0.655,1.52,0.832,2.536c0.174,1.019,0.262,2.205,0.262,3.562
		C97.566,29.371,97.479,30.561,97.305,31.588z"/>
	<path fill="#010101" d="M62.968,36.764c-0.438,0-0.846-0.031-1.227-0.095c-0.381-0.063-0.714-0.188-1.001-0.383
		c-0.287-0.194-0.512-0.472-0.674-0.834c-0.162-0.361-0.243-0.843-0.243-1.441V9.254h-7.242v1.609h0.487
		c0.424,0,0.826,0.028,1.207,0.085c0.38,0.056,0.714,0.177,1,0.365c0.288,0.187,0.515,0.452,0.684,0.794
		c0.168,0.343,0.253,0.796,0.253,1.357V34.01c0,0.6-0.085,1.08-0.253,1.441c-0.169,0.363-0.393,0.641-0.674,0.834
		c-0.28,0.193-0.611,0.32-0.991,0.383c-0.253,0.042-0.522,0.064-0.8,0.078c-0.277-0.014-0.547-0.036-0.8-0.078
		c-0.381-0.062-0.714-0.189-1.001-0.383c-0.287-0.194-0.511-0.471-0.674-0.834c-0.162-0.361-0.243-0.842-0.243-1.441V9.254h-7.242
		v1.609h0.486c0.425,0,0.827,0.028,1.207,0.085c0.381,0.056,0.715,0.177,1.001,0.365c0.288,0.187,0.515,0.452,0.684,0.794
		c0.168,0.343,0.253,0.796,0.253,1.357V34.01c0,0.6-0.085,1.08-0.253,1.441c-0.169,0.363-0.394,0.641-0.674,0.834
		c-0.28,0.193-0.611,0.32-0.992,0.383c-0.38,0.062-0.789,0.094-1.226,0.094h-0.486v1.608h9.047h1.826h9.047v-1.608h-0.486V36.764z"
		/>
	<path fill="#010101" d="M43.75,28.061c0,3.606-0.764,6.289-2.292,8.047c-1.527,1.763-3.765,2.642-6.709,2.642
		c-1.384,0-2.626-0.222-3.724-0.653c-1.098-0.438-2.03-1.099-2.797-1.984c-0.769-0.883-1.355-1.998-1.76-3.338
		c-0.406-1.344-0.608-2.91-0.608-4.707c0-3.582,0.759-6.246,2.273-7.993c1.516-1.746,3.759-2.619,6.728-2.619
		c1.385,0,2.626,0.215,3.724,0.646c1.098,0.43,2.031,1.085,2.798,1.964c0.768,0.88,1.354,1.984,1.76,3.312
		C43.548,24.702,43.75,26.264,43.75,28.061z M29.566,28.061c0,1.424,0.095,2.68,0.281,3.766c0.187,1.084,0.489,1.99,0.907,2.723
		c0.418,0.729,0.961,1.281,1.628,1.656c0.668,0.373,1.481,0.562,2.442,0.562c0.96,0,1.771-0.188,2.433-0.562
		c0.661-0.375,1.197-0.93,1.609-1.656c0.412-0.729,0.708-1.639,0.889-2.723c0.181-1.086,0.271-2.342,0.271-3.766
		c0-1.422-0.093-2.668-0.279-3.742c-0.188-1.071-0.486-1.968-0.899-2.686c-0.411-0.717-0.95-1.256-1.618-1.618
		c-0.668-0.362-1.481-0.543-2.442-0.543c-0.96,0-1.771,0.181-2.433,0.543c-0.661,0.362-1.197,0.901-1.608,1.618
		c-0.412,0.717-0.712,1.614-0.898,2.686C29.661,25.393,29.566,26.639,29.566,28.061z"/>
	<path fill="#010101" d="M18.574,38.746c-1.272,0-2.446-0.196-3.519-0.589c-1.073-0.394-1.996-1.015-2.77-1.862
		c-0.774-0.85-1.376-1.938-1.806-3.266c-0.431-1.328-0.646-2.938-0.646-4.819c0-2.045,0.216-3.759,0.646-5.137
		c0.43-1.378,1.029-2.485,1.796-3.321c0.768-0.836,1.672-1.428,2.714-1.777c1.041-0.35,2.167-0.524,3.377-0.524
		c0.799,0,1.595,0.078,2.387,0.233c0.792,0.156,1.506,0.396,2.142,0.72c0.637,0.325,1.155,0.733,1.554,1.226
		c0.399,0.493,0.599,1.07,0.599,1.731c0,0.886-0.287,1.51-0.86,1.871c-0.574,0.364-1.429,0.543-2.563,0.543
		c0-0.599-0.051-1.167-0.149-1.704c-0.102-0.536-0.271-1.007-0.515-1.413c-0.243-0.405-0.574-0.723-0.992-0.954
		c-0.418-0.231-0.952-0.346-1.601-0.346c-0.735,0-1.4,0.137-1.992,0.411c-0.593,0.275-1.101,0.749-1.525,1.422
		c-0.424,0.674-0.748,1.579-0.973,2.712c-0.225,1.137-0.338,2.559-0.338,4.268c0,2.722,0.453,4.748,1.357,6.082
		c0.904,1.336,2.386,2.002,4.444,2.002c1.186,0,2.22-0.249,3.107-0.748c0.885-0.5,1.545-1.141,1.982-1.928
		c0.188,0.149,0.343,0.353,0.468,0.601c0.125,0.25,0.188,0.549,0.188,0.896c0,0.438-0.138,0.874-0.412,1.312
		c-0.274,0.437-0.682,0.828-1.226,1.178c-0.543,0.351-1.22,0.635-2.031,0.853C20.606,38.639,19.659,38.746,18.574,38.746z"/>
</g>
<g>
	
		<linearGradient id="SVGID_1_" gradientUnits="userSpaceOnUse" x1="1005.2207" y1="-1083.3105" x2="1005.2207" y2="-1114.2782" gradientTransform="matrix(1 0 0 -1 -870 -1076)">
		<stop  offset="0" style="stop-color:#4EBBEB"/>
		<stop  offset="1" style="stop-color:#0C80B8"/>
	</linearGradient>
	<path fill="url(#SVGID_1_)" d="M138.714,35.727c0.463,0,0.886-0.022,1.272-0.076c0.388-0.049,0.779-0.109,1.18-0.187v1.685
		c-0.162,0.074-0.374,0.149-0.637,0.226c-0.262,0.075-0.545,0.144-0.854,0.196c-0.307,0.057-0.627,0.101-0.965,0.132
		c-0.336,0.028-0.65,0.047-0.953,0.047c-0.974,0-1.809-0.104-2.508-0.312c-0.699-0.205-1.271-0.539-1.725-1.002
		c-0.447-0.461-0.779-1.068-1-1.832c-0.219-0.762-0.326-1.688-0.326-2.787V19.014h-2.922v-1.535c0.464,0,0.973-0.093,1.525-0.281
		c0.555-0.188,1.045-0.499,1.471-0.935c0.438-0.475,0.787-1.04,1.058-1.694c0.271-0.655,0.503-1.476,0.702-2.461h1.76v4.715h5.018
		v2.19h-5.018v12.913c0,1.309,0.268,2.27,0.794,2.883C137.122,35.419,137.83,35.727,138.714,35.727z"/>
	
		<linearGradient id="SVGID_2_" gradientUnits="userSpaceOnUse" x1="985.5654" y1="-1083.3105" x2="985.5654" y2="-1114.2788" gradientTransform="matrix(1 0 0 -1 -870 -1076)">
		<stop  offset="0" style="stop-color:#4EBBEB"/>
		<stop  offset="1" style="stop-color:#0C80B8"/>
	</linearGradient>
	<path fill="url(#SVGID_2_)" d="M130.398,35.764c-0.426,0-0.83-0.031-1.219-0.095c-0.388-0.062-0.722-0.188-0.998-0.383
		c-0.283-0.193-0.509-0.472-0.678-0.834c-0.169-0.361-0.252-0.843-0.252-1.441V16.824h-6.634H120.4h-8.24v1.61
		c0.638,0,1.105,0.046,1.413,0.14c0.306,0.094,0.459,0.303,0.459,0.627c0,0.187-0.031,0.384-0.097,0.589
		c-0.062,0.205-0.176,0.44-0.336,0.702c-0.164,0.262-0.379,0.568-0.646,0.917c-0.269,0.35-0.604,0.755-1.021,1.216l-4.791,5.241
		c0.023-0.662,0.049-1.292,0.075-1.892c0.023-0.523,0.043-1.06,0.056-1.603c0.015-0.542,0.021-0.988,0.021-1.338V8.254h-7.056v1.609
		h0.3c0.423,0,0.825,0.028,1.207,0.085c0.381,0.056,0.714,0.177,1,0.365c0.287,0.187,0.519,0.452,0.687,0.794
		c0.168,0.343,0.254,0.796,0.254,1.357V33.01c0,0.6-0.086,1.08-0.254,1.441c-0.168,0.363-0.396,0.641-0.677,0.834
		c-0.278,0.193-0.608,0.32-0.989,0.383c-0.382,0.062-0.789,0.094-1.228,0.094h-0.3v1.608h10.312v-1.608h-0.113
		c-0.424,0-0.826-0.029-1.207-0.084c-0.381-0.056-0.713-0.171-1-0.347c-0.289-0.175-0.518-0.435-0.686-0.776
		c-0.168-0.341-0.252-0.795-0.252-1.354v-3.464l2.824-2.096l3.837,6.006c0.537,0.853,1.021,1.521,1.46,2.016
		c0.438,0.49,0.917,0.863,1.439,1.122c0.521,0.255,1.145,0.419,1.86,0.483c0.375,0.035,0.808,0.062,1.29,0.08v0.022h1.452h0.542
		h8.896v-1.608h-0.504v0.002H130.398z M123.661,33.198c0,0.562-0.083,1.016-0.253,1.356c-0.168,0.342-0.396,0.603-0.682,0.774
		c-0.287,0.176-0.621,0.291-1.002,0.347c-0.121,0.02-0.25,0.027-0.377,0.04c-0.64-0.092-1.218-0.341-1.729-0.76
		c-0.655-0.537-1.312-1.315-1.978-2.34l-5.105-7.579l2.691-3.032c0.998-1.135,1.924-2.015,2.778-2.638
		c0.845-0.617,1.705-0.926,2.58-0.933c0.397,0.003,0.776,0.032,1.134,0.091c0.381,0.063,0.715,0.187,1.002,0.375
		c0.287,0.187,0.516,0.452,0.684,0.795c0.171,0.343,0.254,0.795,0.254,1.356L123.661,33.198L123.661,33.198z"/>
	
		<linearGradient id="SVGID_3_" gradientUnits="userSpaceOnUse" x1="995.2969" y1="-1083.3105" x2="995.2969" y2="-1114.2784" gradientTransform="matrix(1 0 0 -1 -870 -1076)">
		<stop  offset="0" style="stop-color:#4EBBEB"/>
		<stop  offset="1" style="stop-color:#0C80B8"/>
	</linearGradient>
	<path fill="url(#SVGID_3_)" d="M123.755,12.464c0.199,0.188,0.431,0.322,0.69,0.402c0.265,0.081,0.55,0.122,0.861,0.122
		c0.301,0,0.58-0.041,0.842-0.122c0.263-0.081,0.49-0.215,0.684-0.402s0.35-0.431,0.468-0.73c0.118-0.3,0.179-0.674,0.179-1.123
		c0-0.449-0.061-0.824-0.179-1.123c-0.118-0.299-0.274-0.542-0.468-0.729c-0.193-0.188-0.421-0.318-0.684-0.393
		c-0.262-0.075-0.541-0.112-0.842-0.112c-0.312,0-0.6,0.037-0.861,0.112c-0.262,0.075-0.491,0.206-0.69,0.393
		c-0.2,0.187-0.354,0.43-0.469,0.729c-0.111,0.299-0.168,0.674-0.168,1.123c0,0.449,0.057,0.823,0.168,1.123
		C123.4,12.034,123.555,12.277,123.755,12.464z"/>
	
		<linearGradient id="SVGID_4_" gradientUnits="userSpaceOnUse" x1="951.165" y1="-1083.3105" x2="951.165" y2="-1114.2794" gradientTransform="matrix(1 0 0 -1 -870 -1076)">
		<stop  offset="0" style="stop-color:#FFFFFF"/>
		<stop  offset="1" style="stop-color:#CDCCCC"/>
	</linearGradient>
	<path fill="url(#SVGID_4_)" d="M99.775,22.308c-0.342-1.335-0.844-2.436-1.506-3.303c-0.662-0.867-1.479-1.509-2.451-1.927
		c-0.973-0.418-2.09-0.627-3.353-0.627c-0.745,0-1.422,0.09-2.021,0.271c-0.598,0.181-1.135,0.437-1.607,0.767
		c-0.474,0.332-0.895,0.734-1.255,1.208c-0.36,0.474-0.687,1.004-0.974,1.59h-0.148c0.023-0.636,0.051-1.254,0.075-1.852
		c0.022-0.524,0.043-1.07,0.056-1.638c0.014-0.567,0.02-1.069,0.02-1.507V8.254h-7.055v1.609h0.301c0.425,0,0.826,0.028,1.207,0.085
		c0.379,0.056,0.713,0.177,1,0.365c0.287,0.187,0.516,0.452,0.686,0.794c0.166,0.344,0.25,0.796,0.25,1.357V33.01
		c0,0.6-0.084,1.08-0.252,1.441c-0.17,0.363-0.395,0.641-0.676,0.834c-0.279,0.193-0.609,0.32-0.991,0.383
		c-0.365,0.061-0.757,0.09-1.174,0.092c-0.408-0.002-0.765-0.045-1.062-0.129c-0.308-0.087-0.555-0.236-0.738-0.449
		c-0.188-0.211-0.325-0.492-0.412-0.842c-0.088-0.35-0.131-0.792-0.131-1.33v-9.937c0-1.223-0.146-2.254-0.439-3.096
		c-0.293-0.843-0.732-1.526-1.318-2.05c-0.588-0.524-1.314-0.901-2.188-1.132c-0.873-0.23-1.896-0.346-3.069-0.346
		c-0.948,0-1.84,0.068-2.675,0.206c-0.837,0.138-1.57,0.353-2.2,0.645c-0.629,0.294-1.126,0.671-1.487,1.133
		c-0.362,0.461-0.543,1.023-0.543,1.684c0,0.887,0.277,1.51,0.833,1.871c0.556,0.362,1.363,0.543,2.423,0.543
		c0-0.599,0.044-1.154,0.132-1.665c0.086-0.512,0.259-0.955,0.515-1.329c0.256-0.375,0.61-0.664,1.066-0.87
		c0.455-0.206,1.051-0.309,1.787-0.309c0.786,0,1.413,0.115,1.881,0.346c0.468,0.231,0.826,0.555,1.076,0.973
		c0.249,0.418,0.411,0.917,0.486,1.497c0.075,0.581,0.112,1.213,0.112,1.899v2.303l-3.182,0.112
		c-2.932,0.087-5.121,0.623-6.569,1.607c-1.446,0.984-2.17,2.495-2.17,4.527c0,1.048,0.149,1.956,0.449,2.725
		c0.3,0.768,0.714,1.401,1.244,1.906c0.53,0.51,1.161,0.88,1.892,1.124c0.729,0.242,1.518,0.364,2.366,0.364
		c0.799,0,1.48-0.094,2.049-0.271c0.567-0.182,1.076-0.434,1.525-0.758c0.449-0.322,0.861-0.711,1.235-1.16
		c0.373-0.449,0.761-0.941,1.16-1.479h0.318l0.599,3.293h4.688h0.498h5.641l0.674-2.993h0.242c0.273,0.5,0.597,0.954,0.964,1.364
		c0.368,0.41,0.793,0.769,1.272,1.064c0.479,0.301,1.021,0.531,1.617,0.694c0.602,0.161,1.268,0.241,2.004,0.241
		c1.26,0,2.377-0.207,3.35-0.627c0.974-0.418,1.789-1.062,2.451-1.938c0.662-0.873,1.164-1.981,1.508-3.33
		c0.343-1.348,0.515-2.942,0.515-4.791C100.291,25.229,100.119,23.643,99.775,22.308z M73.953,30.055
		c0,0.812-0.119,1.549-0.355,2.211c-0.237,0.659-0.577,1.221-1.021,1.686c-0.442,0.46-0.979,0.814-1.608,1.062
		c-0.629,0.25-1.332,0.375-2.105,0.375c-1.061,0-1.844-0.296-2.349-0.89c-0.506-0.592-0.758-1.488-0.758-2.685
		c0-0.75,0.096-1.41,0.29-1.985c0.192-0.572,0.514-1.058,0.963-1.449c0.449-0.392,1.039-0.696,1.769-0.917
		c0.73-0.218,1.638-0.354,2.723-0.402l2.452-0.109L73.953,30.055L73.953,30.055z M96.305,30.588
		c-0.175,1.03-0.453,1.895-0.832,2.594c-0.382,0.697-0.869,1.227-1.461,1.58c-0.593,0.354-1.312,0.533-2.16,0.533
		c-1.012,0-1.851-0.179-2.519-0.533c-0.667-0.354-1.204-0.883-1.608-1.58c-0.404-0.699-0.689-1.562-0.861-2.584
		c-0.168-1.021-0.252-2.201-0.252-3.537c0-1.384,0.084-2.586,0.252-3.608c0.172-1.023,0.453-1.871,0.854-2.545
		c0.399-0.673,0.935-1.176,1.603-1.507c0.668-0.33,1.5-0.495,2.498-0.495c0.849,0,1.574,0.167,2.181,0.505
		c0.604,0.336,1.099,0.842,1.479,1.516c0.379,0.673,0.655,1.52,0.832,2.536c0.174,1.017,0.262,2.205,0.262,3.562
		C96.566,28.371,96.479,29.561,96.305,30.588z"/>
	
		<linearGradient id="SVGID_5_" gradientUnits="userSpaceOnUse" x1="922.4941" y1="-1083.3105" x2="922.4941" y2="-1114.2788" gradientTransform="matrix(1 0 0 -1 -870 -1076)">
		<stop  offset="0" style="stop-color:#FFFFFF"/>
		<stop  offset="1" style="stop-color:#CDCCCC"/>
	</linearGradient>
	<path fill="url(#SVGID_5_)" d="M61.968,35.764c-0.438,0-0.846-0.031-1.227-0.095c-0.381-0.063-0.714-0.188-1.001-0.383
		c-0.287-0.194-0.512-0.472-0.674-0.834c-0.162-0.361-0.243-0.843-0.243-1.441V8.254h-7.242v1.609h0.487
		c0.424,0,0.826,0.028,1.207,0.085c0.38,0.056,0.714,0.177,1,0.365c0.288,0.187,0.515,0.452,0.684,0.794
		c0.168,0.343,0.253,0.796,0.253,1.357V33.01c0,0.6-0.085,1.08-0.253,1.441c-0.169,0.363-0.393,0.641-0.674,0.834
		c-0.28,0.193-0.611,0.32-0.991,0.383c-0.253,0.042-0.522,0.064-0.8,0.078c-0.277-0.014-0.547-0.036-0.8-0.078
		c-0.381-0.062-0.714-0.189-1.001-0.383c-0.287-0.194-0.511-0.471-0.674-0.834c-0.162-0.361-0.243-0.842-0.243-1.441V8.254h-7.242
		v1.609h0.486c0.425,0,0.827,0.028,1.207,0.085c0.381,0.056,0.715,0.177,1.001,0.365c0.288,0.187,0.515,0.452,0.684,0.794
		c0.168,0.343,0.253,0.796,0.253,1.357V33.01c0,0.6-0.085,1.08-0.253,1.441c-0.169,0.363-0.394,0.641-0.674,0.834
		c-0.28,0.193-0.611,0.32-0.992,0.383c-0.38,0.062-0.789,0.094-1.226,0.094h-0.486v1.608h9.047h1.826h9.047v-1.608h-0.486V35.764z"
		/>
	
		<linearGradient id="SVGID_6_" gradientUnits="userSpaceOnUse" x1="903.8047" y1="-1083.3105" x2="903.8047" y2="-1114.2777" gradientTransform="matrix(1 0 0 -1 -870 -1076)">
		<stop  offset="0" style="stop-color:#FFFFFF"/>
		<stop  offset="1" style="stop-color:#CDCCCC"/>
	</linearGradient>
	<path fill="url(#SVGID_6_)" d="M42.75,27.061c0,3.606-0.764,6.289-2.292,8.047c-1.527,1.763-3.765,2.642-6.709,2.642
		c-1.384,0-2.626-0.222-3.724-0.653c-1.098-0.438-2.03-1.099-2.797-1.984c-0.769-0.883-1.355-1.998-1.76-3.338
		c-0.406-1.344-0.608-2.91-0.608-4.707c0-3.583,0.759-6.246,2.273-7.993c1.516-1.746,3.759-2.619,6.728-2.619
		c1.385,0,2.626,0.215,3.724,0.646c1.098,0.43,2.031,1.085,2.798,1.964c0.768,0.88,1.354,1.984,1.76,3.312
		C42.548,23.702,42.75,25.264,42.75,27.061z M28.566,27.061c0,1.424,0.095,2.68,0.281,3.766c0.187,1.084,0.489,1.99,0.907,2.723
		c0.418,0.729,0.961,1.281,1.628,1.656c0.668,0.373,1.481,0.562,2.442,0.562c0.96,0,1.771-0.188,2.433-0.562
		c0.661-0.375,1.197-0.93,1.609-1.656c0.412-0.729,0.708-1.639,0.889-2.723c0.181-1.086,0.271-2.342,0.271-3.766
		c0-1.422-0.093-2.667-0.279-3.742c-0.188-1.072-0.486-1.968-0.899-2.686c-0.411-0.717-0.95-1.256-1.618-1.618
		c-0.668-0.362-1.481-0.543-2.442-0.543c-0.96,0-1.771,0.181-2.433,0.543c-0.661,0.362-1.197,0.901-1.608,1.618
		c-0.412,0.718-0.712,1.614-0.898,2.686C28.661,24.393,28.566,25.639,28.566,27.061z"/>
	
		<linearGradient id="SVGID_7_" gradientUnits="userSpaceOnUse" x1="886.459" y1="-1083.3105" x2="886.459" y2="-1114.2777" gradientTransform="matrix(1 0 0 -1 -870 -1076)">
		<stop  offset="0" style="stop-color:#FFFFFF"/>
		<stop  offset="1" style="stop-color:#CDCCCC"/>
	</linearGradient>
	<path fill="url(#SVGID_7_)" d="M17.574,37.746c-1.272,0-2.446-0.196-3.519-0.589c-1.073-0.394-1.996-1.015-2.77-1.862
		c-0.774-0.85-1.376-1.938-1.806-3.266c-0.431-1.328-0.646-2.938-0.646-4.819c0-2.045,0.216-3.759,0.646-5.137
		c0.43-1.378,1.029-2.485,1.796-3.321c0.768-0.836,1.672-1.428,2.714-1.777c1.041-0.35,2.167-0.524,3.377-0.524
		c0.799,0,1.595,0.078,2.387,0.233c0.792,0.156,1.506,0.396,2.142,0.72c0.637,0.325,1.155,0.733,1.554,1.226
		c0.399,0.493,0.599,1.07,0.599,1.731c0,0.886-0.287,1.51-0.86,1.871c-0.574,0.363-1.429,0.543-2.563,0.543
		c0-0.598-0.051-1.166-0.149-1.703c-0.102-0.536-0.271-1.007-0.515-1.413c-0.243-0.405-0.574-0.723-0.992-0.954
		c-0.418-0.231-0.952-0.346-1.601-0.346c-0.735,0-1.4,0.137-1.992,0.411c-0.593,0.275-1.101,0.749-1.525,1.422
		c-0.424,0.674-0.748,1.579-0.973,2.713c-0.225,1.136-0.338,2.558-0.338,4.267c0,2.721,0.453,4.748,1.357,6.082
		c0.904,1.336,2.386,2.002,4.444,2.002c1.186,0,2.22-0.249,3.107-0.748c0.885-0.5,1.545-1.141,1.982-1.928
		c0.188,0.15,0.343,0.352,0.468,0.6c0.125,0.25,0.188,0.549,0.188,0.897c0,0.438-0.138,0.874-0.412,1.312
		c-0.274,0.438-0.682,0.83-1.226,1.178c-0.543,0.353-1.22,0.637-2.031,0.854S18.659,37.746,17.574,37.746z"/>
</g>
</svg>
