<?xml version="1.0" encoding="utf-8"?>
<!-- Generator: Adobe Illustrator 14.0.0, SVG Export Plug-In . SVG Version: 6.00 Build 43363)  -->
<!DOCTYPE svg PUBLIC "-//W3C//DTD SVG 1.1//EN" "http://www.w3.org/Graphics/SVG/1.1/DTD/svg11.dtd">
<svg version="1.1" id="Layer_1" xmlns="http://www.w3.org/2000/svg" xmlns:xlink="http://www.w3.org/1999/xlink" x="0px" y="0px"
	 width="32px" height="32px" viewBox="0 0 32 32" enable-background="new 0 0 32 32" xml:space="preserve">
<g>
	<g>
		<g opacity="0.75">
			<g opacity="0.21">
				<rect x="5.38" y="8.772" transform="matrix(0.9245 -0.3813 0.3813 0.9245 -5.3179 7.7758)" width="23.168" height="17.072"/>
			</g>
			<g>
				
					<rect x="4.38" y="7.772" transform="matrix(0.9245 -0.3813 0.3813 0.9245 -5.0122 7.319)" fill="#FFFFFF" width="23.168" height="17.072"/>
			</g>
		</g>
		<polygon fill="#CCCCCC" points="10.928,28 11.928,16 16.928,18 17.928,16 27.928,20 		"/>
		<circle fill="#CCCCCC" cx="19.428" cy="11.5" r="1.5"/>
	</g>
	<g>
		<g opacity="0.75">
			<g opacity="0.21">
				<rect x="7.76" y="9" width="23.168" height="17.072"/>
			</g>
			<g>
				<rect x="6.76" y="8" fill="#FFFFFF" width="23.168" height="17.072"/>
			</g>
		</g>
		<path fill="#CCCCCC" d="M22.467,14.039c0,2.23-1.809,4.037-4.039,4.037s-4.039-1.807-4.039-4.037c0-2.232,1.809-4.039,4.039-4.039
			S22.467,11.807,22.467,14.039z"/>
		<path fill="#CCCCCC" d="M24.744,25c0.018-0.19,0.029-0.382,0.029-0.576c0-3.506-2.842-6.348-6.346-6.348s-6.346,2.842-6.346,6.348
			c0,0.194,0.012,0.386,0.029,0.576H24.744z"/>
	</g>
</g>
</svg>
