<?xml version="1.0" encoding="utf-8"?>
<!-- Generator: Adobe Illustrator 14.0.0, SVG Export Plug-In . SVG Version: 6.00 Build 43363)  -->
<!DOCTYPE svg PUBLIC "-//W3C//DTD SVG 1.1//EN" "http://www.w3.org/Graphics/SVG/1.1/DTD/svg11.dtd">
<svg version="1.1" id="Layer_1" xmlns="http://www.w3.org/2000/svg" xmlns:xlink="http://www.w3.org/1999/xlink" x="0px" y="0px"
	 width="32px" height="32px" viewBox="0 0 32 32" enable-background="new 0 0 32 32" xml:space="preserve">
<g>
	<linearGradient id="SVGID_1_" gradientUnits="userSpaceOnUse" x1="15.9741" y1="2.0303" x2="15.9741" y2="31.5247">
		<stop  offset="0" style="stop-color:#FBB03B"/>
		<stop  offset="1" style="stop-color:#F15A24"/>
	</linearGradient>
	<path fill="url(#SVGID_1_)" d="M11.611,31.5c-6.141,0-11.137-4.996-11.137-11.137v-8.727C0.474,5.496,5.47,0.5,11.611,0.5h8.727
		c6.141,0,11.137,4.996,11.137,11.136v8.727c0,6.141-4.996,11.137-11.137,11.137H11.611z"/>
	<path fill="#333333" d="M20.338,1c5.865,0,10.637,4.771,10.637,10.636v8.727C30.975,26.229,26.203,31,20.338,31h-8.727
		C5.746,31,0.974,26.229,0.974,20.363v-8.727C0.974,5.772,5.746,1,11.611,1H20.338 M20.338,0h-8.727
		C5.184,0-0.026,5.21-0.026,11.637v8.727C-0.026,26.791,5.184,32,11.611,32h8.727c6.426,0,11.637-5.209,11.637-11.637v-8.727
		C31.975,5.21,26.764,0,20.338,0L20.338,0z"/>
</g>
<g>
	<g opacity="0.21">
		<polygon points="21.002,11.412 15.632,11.412 15.632,7.915 8.001,15.207 15.632,22.499 15.632,19.412 21.002,19.412 		"/>
	</g>
	<g>
		<polygon fill="#FFFFFF" points="22.002,12.412 16.632,12.412 16.632,8.915 9.001,16.207 16.632,23.499 16.632,20.412 
			22.002,20.412 		"/>
	</g>
</g>
</svg>
