<?xml version="1.0" encoding="utf-8"?>
<!-- Generator: Adobe Illustrator 14.0.0, SVG Export Plug-In . SVG Version: 6.00 Build 43363)  -->
<!DOCTYPE svg PUBLIC "-//W3C//DTD SVG 1.1//EN" "http://www.w3.org/Graphics/SVG/1.1/DTD/svg11.dtd">
<svg version="1.1" id="Layer_1" xmlns="http://www.w3.org/2000/svg" xmlns:xlink="http://www.w3.org/1999/xlink" x="0px" y="0px"
	 width="32px" height="32px" viewBox="0 0 32 32" enable-background="new 0 0 32 32" xml:space="preserve">
<g>
	<linearGradient id="SVGID_1_" gradientUnits="userSpaceOnUse" x1="16.187" y1="3.5669" x2="16.187" y2="31.57">
		<stop  offset="0" style="stop-color:#4ABAEB"/>
		<stop  offset="1" style="stop-color:#0480B7"/>
	</linearGradient>
	<path fill="url(#SVGID_1_)" d="M6.521,20.745c-1.708-1.766-2.646-3.961-2.646-6.21C3.875,9.002,9.398,4.5,16.188,4.5
		S28.5,9.002,28.5,14.535c0,5.534-5.523,10.036-12.312,10.036c-1.185,0-3.629-0.42-4.75-0.669L5.465,26.89L6.521,20.745z"/>
	<path fill="#333333" d="M16.188,5C22.711,5,28,9.269,28,14.535c0,5.267-5.289,9.536-11.812,9.536c-1.159,0-3.754-0.445-4.812-0.696
		L6.125,26l0.933-5.424c-1.673-1.646-2.683-3.746-2.683-6.041C4.375,9.269,9.664,5,16.188,5 M16.188,4
		C9.123,4,3.375,8.726,3.375,14.535c0,2.301,0.923,4.545,2.611,6.372L5.14,25.83l-0.335,1.948l1.768-0.884l4.932-2.466
		c1.207,0.256,3.522,0.643,4.683,0.643C23.252,25.071,29,20.345,29,14.535C29,8.726,23.252,4,16.188,4L16.188,4z"/>
</g>
</svg>
