<?xml version="1.0" encoding="utf-8"?>
<!-- Generator: Adobe Illustrator 14.0.0, SVG Export Plug-In . SVG Version: 6.00 Build 43363)  -->
<!DOCTYPE svg PUBLIC "-//W3C//DTD SVG 1.1//EN" "http://www.w3.org/Graphics/SVG/1.1/DTD/svg11.dtd">
<svg version="1.1" id="Layer_1" xmlns="http://www.w3.org/2000/svg" xmlns:xlink="http://www.w3.org/1999/xlink" x="0px" y="0px"
	 width="32px" height="32px" viewBox="0 0 32 32" enable-background="new 0 0 32 32" xml:space="preserve">
<linearGradient id="SVGID_1_" gradientUnits="userSpaceOnUse" x1="15.9995" y1="-6.8867" x2="15.9995" y2="39.03">
	<stop  offset="0" style="stop-color:#6D6E70"/>
	<stop  offset="1" style="stop-color:#231F20"/>
</linearGradient>
<path fill="url(#SVGID_1_)" d="M25.195,18.953c2.362-0.928,4.031-3.224,4.031-5.912c0-3.508-2.842-6.353-6.351-6.353
	c-3.508,0-6.352,2.845-6.352,6.353c0,2.688,1.671,4.984,4.031,5.912c-1.199,0.316-2.28,0.896-3.231,1.638
	c-1.122-2.421-3.256-4.275-5.882-4.969c2.362-0.928,4.034-3.223,4.034-5.913c0-3.507-2.845-6.352-6.354-6.352
	c-3.507,0-6.351,2.845-6.351,6.352c0,2.69,1.671,4.985,4.031,5.913c-3.878,1.022-6.735,4.549-6.744,8.744
	c2.791,0.61,5.852,0.945,9.063,0.945c1.76,0,3.471-0.109,5.121-0.301c-0.267,0.851-0.433,1.748-0.434,2.686
	c2.792,0.61,5.853,0.946,9.065,0.946c3.211,0,6.271-0.336,9.064-0.946C31.93,23.5,29.072,19.978,25.195,18.953z"/>
</svg>
