<?xml version="1.0" encoding="utf-8"?>
<!-- Generator: Adobe Illustrator 14.0.0, SVG Export Plug-In . SVG Version: 6.00 Build 43363)  -->
<!DOCTYPE svg PUBLIC "-//W3C//DTD SVG 1.1//EN" "http://www.w3.org/Graphics/SVG/1.1/DTD/svg11.dtd">
<svg version="1.1" id="Layer_1" xmlns="http://www.w3.org/2000/svg" xmlns:xlink="http://www.w3.org/1999/xlink" x="0px" y="0px"
	 width="16px" height="16px" viewBox="0 0 16 16" enable-background="new 0 0 16 16" xml:space="preserve">
<g>
	<g opacity="0.5">
		<path fill="#FFFFFF" d="M14.318,9c0-2.939-2.381-5.318-5.319-5.318C6.062,3.682,3.682,6.061,3.682,9
			c0,2.938,2.381,5.318,5.317,5.318C11.938,14.318,14.318,11.938,14.318,9z M8.999,12.865c-2.132,0-3.864-1.732-3.864-3.865
			c0-2.133,1.732-3.863,3.864-3.863c2.136,0,3.864,1.73,3.864,3.863C12.863,11.133,11.135,12.865,8.999,12.865z"/>
		
			<rect x="4.389" y="8.396" transform="matrix(0.7071 -0.7071 0.7071 0.7071 -3.5836 9.1413)" fill="#FFFFFF" width="9.706" height="1"/>
	</g>
	<g>
		<g>
			<linearGradient id="SVGID_1_" gradientUnits="userSpaceOnUse" x1="8.0005" y1="25.292" x2="8.0005" y2="-5.8484">
				<stop  offset="0" style="stop-color:#6D6E70"/>
				<stop  offset="1" style="stop-color:#231F20"/>
			</linearGradient>
			<path fill="url(#SVGID_1_)" d="M13.318,8c0-2.939-2.381-5.319-5.319-5.319C5.062,2.682,2.682,5.061,2.682,8
				c0,2.937,2.381,5.318,5.317,5.318C10.938,13.318,13.318,10.938,13.318,8z M7.999,11.865c-2.132,0-3.864-1.732-3.864-3.865
				c0-2.134,1.732-3.864,3.864-3.864c2.136,0,3.864,1.73,3.864,3.864C11.863,10.133,10.135,11.865,7.999,11.865z"/>
			
				<linearGradient id="SVGID_2_" gradientUnits="userSpaceOnUse" x1="-234.0347" y1="-11.2065" x2="-234.0347" y2="-14.1343" gradientTransform="matrix(0.7627 -0.7627 0.7071 0.7071 195.805 -161.5194)">
				<stop  offset="0" style="stop-color:#6D6E70"/>
				<stop  offset="1" style="stop-color:#231F20"/>
			</linearGradient>
			<polygon fill="url(#SVGID_2_)" points="12.027,4.818 5.164,11.682 4.457,10.975 11.32,4.111 			"/>
		</g>
	</g>
</g>
</svg>
