<?xml version="1.0" encoding="utf-8"?>
<!-- Generator: Adobe Illustrator 14.0.0, SVG Export Plug-In . SVG Version: 6.00 Build 43363)  -->
<!DOCTYPE svg PUBLIC "-//W3C//DTD SVG 1.1//EN" "http://www.w3.org/Graphics/SVG/1.1/DTD/svg11.dtd">
<svg version="1.1" xmlns="http://www.w3.org/2000/svg" xmlns:xlink="http://www.w3.org/1999/xlink" x="0px" y="0px" width="250px"
	 height="60px" viewBox="0 0 250 60" enable-background="new 0 0 250 60" xml:space="preserve">
<g id="Box">
</g>
<g id="Text_1_">
	<linearGradient id="Shading_1_" gradientUnits="userSpaceOnUse" x1="234.9561" y1="1.9014" x2="234.9561" y2="58.4369">
		<stop  offset="0" style="stop-color:#4BBBEB"/>
		<stop  offset="1" style="stop-color:#0681B8"/>
	</linearGradient>
	<path id="Shading_2_" fill="url(#Shading_1_)" d="M241.327,53.78c0.844,0,1.617-0.045,2.324-0.137
		c0.705-0.091,1.424-0.205,2.152-0.342v3.074c-0.297,0.137-0.684,0.273-1.162,0.41s-0.996,0.257-1.555,0.359
		s-1.145,0.182-1.76,0.239c-0.613,0.056-1.195,0.085-1.742,0.085c-1.775,0-3.303-0.188-4.578-0.563s-2.322-0.985-3.143-1.828
		s-1.43-1.958-1.828-3.349c-0.398-1.389-0.598-3.086-0.598-5.09V23.27h-5.33v-2.802c0.842,0,1.771-0.171,2.785-0.513
		c1.012-0.341,1.906-0.911,2.682-1.708c0.797-0.866,1.439-1.896,1.93-3.092s0.918-2.693,1.281-4.493h3.213v8.61h9.156v3.998h-9.156
		v23.575c0,2.391,0.482,4.146,1.451,5.262C238.419,53.221,239.71,53.78,241.327,53.78z"/>
	<linearGradient id="Shading_9_" gradientUnits="userSpaceOnUse" x1="199.0762" y1="1.9014" x2="199.0762" y2="58.4366">
		<stop  offset="0" style="stop-color:#4BBBEB"/>
		<stop  offset="1" style="stop-color:#0681B8"/>
	</linearGradient>
	<path id="Shading_3_" fill="url(#Shading_9_)" d="M226.144,53.848c-0.775,0-1.516-0.057-2.223-0.171
		c-0.705-0.114-1.314-0.347-1.826-0.7c-0.514-0.354-0.924-0.859-1.23-1.521c-0.309-0.66-0.461-1.537-0.461-2.63V19.272h-12.109
		h-0.395h-15.049v2.938c1.162,0,2.021,0.085,2.58,0.256c0.557,0.171,0.836,0.553,0.836,1.145c0,0.342-0.057,0.701-0.17,1.076
		c-0.115,0.376-0.32,0.803-0.615,1.281c-0.297,0.479-0.689,1.037-1.18,1.674c-0.49,0.638-1.109,1.378-1.861,2.221l-8.746,9.566
		c0.045-1.207,0.09-2.357,0.137-3.451c0.045-0.957,0.079-1.93,0.102-2.921c0.023-0.991,0.035-1.805,0.035-2.442V3.624h-12.881v2.938
		h0.547c0.773,0,1.508,0.051,2.203,0.154s1.305,0.325,1.828,0.667c0.523,0.341,0.939,0.826,1.247,1.452
		c0.308,0.627,0.462,1.452,0.462,2.477v37.515c0,1.093-0.154,1.97-0.462,2.63c-0.308,0.662-0.718,1.168-1.229,1.521
		c-0.513,0.354-1.117,0.586-1.811,0.7c-0.695,0.114-1.441,0.171-2.238,0.171h-0.547v2.938h18.825v-2.938h-0.204
		c-0.775,0-1.51-0.052-2.205-0.154c-0.694-0.102-1.303-0.312-1.827-0.632s-0.939-0.791-1.247-1.418
		c-0.308-0.626-0.461-1.452-0.461-2.478v-6.32l5.158-3.826l7.004,10.967c0.98,1.549,1.867,2.773,2.666,3.674
		c0.797,0.899,1.674,1.582,2.631,2.049c0.955,0.468,2.088,0.764,3.398,0.889c0.686,0.065,1.475,0.113,2.355,0.144v0.043h2.65h0.99
		h16.244v-2.938H226.144z M213.843,49.167c0,1.025-0.152,1.852-0.461,2.478c-0.307,0.627-0.723,1.099-1.246,1.418
		c-0.525,0.319-1.133,0.53-1.828,0.632c-0.223,0.033-0.457,0.052-0.688,0.074c-1.165-0.167-2.22-0.624-3.154-1.389
		c-1.195-0.98-2.398-2.403-3.605-4.271l-9.326-13.837l4.92-5.535c1.822-2.072,3.514-3.678,5.072-4.817
		c1.542-1.125,3.113-1.69,4.711-1.704c0.724,0.006,1.416,0.059,2.07,0.166c0.695,0.114,1.303,0.342,1.828,0.684
		c0.523,0.341,0.939,0.826,1.246,1.452c0.309,0.626,0.461,1.452,0.461,2.477V49.167z"/>
	<linearGradient id="Shading_10_" gradientUnits="userSpaceOnUse" x1="216.833" y1="1.9014" x2="216.833" y2="58.4368">
		<stop  offset="0" style="stop-color:#4BBBEB"/>
		<stop  offset="1" style="stop-color:#0681B8"/>
	</linearGradient>
	<path id="Shading_8_" fill="url(#Shading_10_)" d="M214.015,11.311c0.363,0.342,0.785,0.587,1.264,0.735
		c0.479,0.148,1.002,0.222,1.572,0.222c0.547,0,1.059-0.074,1.537-0.222c0.479-0.148,0.893-0.393,1.246-0.735
		c0.354-0.341,0.637-0.786,0.854-1.333c0.217-0.546,0.326-1.23,0.326-2.05s-0.109-1.503-0.326-2.05
		c-0.217-0.547-0.5-0.991-0.854-1.333s-0.768-0.581-1.246-0.717c-0.479-0.137-0.99-0.205-1.537-0.205
		c-0.57,0-1.094,0.068-1.572,0.205c-0.479,0.136-0.9,0.375-1.264,0.717c-0.365,0.342-0.648,0.786-0.854,1.333
		c-0.205,0.546-0.309,1.23-0.309,2.05s0.104,1.503,0.309,2.05C213.366,10.525,213.649,10.97,214.015,11.311z"/>
	<linearGradient id="Shading_11_" gradientUnits="userSpaceOnUse" x1="136.249" y1="1.9014" x2="136.249" y2="58.4367">
		<stop  offset="0" style="stop-color:#6D6E71"/>
		<stop  offset="1" style="stop-color:#000000"/>
	</linearGradient>
	<path id="Shading_4_" fill="url(#Shading_11_)" d="M170.235,29.283c-0.627-2.437-1.544-4.447-2.751-6.03
		c-1.208-1.583-2.699-2.756-4.476-3.52c-1.777-0.763-3.815-1.145-6.115-1.145c-1.367,0-2.598,0.166-3.69,0.496
		c-1.093,0.331-2.073,0.797-2.938,1.401s-1.629,1.338-2.289,2.204c-0.661,0.866-1.253,1.834-1.777,2.904h-0.272
		c0.046-1.162,0.091-2.289,0.136-3.383c0.046-0.957,0.08-1.953,0.104-2.989c0.021-1.036,0.033-1.953,0.033-2.75V3.624h-12.88v2.938
		h0.547c0.774,0,1.509,0.051,2.204,0.154c0.693,0.103,1.303,0.325,1.827,0.667c0.524,0.341,0.939,0.826,1.247,1.452
		c0.308,0.627,0.461,1.452,0.461,2.477v37.515c0,1.093-0.153,1.97-0.461,2.63c-0.308,0.662-0.717,1.168-1.23,1.521
		c-0.512,0.354-1.115,0.586-1.811,0.7c-0.667,0.11-1.383,0.163-2.144,0.167c-0.747-0.004-1.396-0.081-1.938-0.236
		c-0.559-0.159-1.008-0.433-1.35-0.82c-0.342-0.387-0.593-0.899-0.751-1.537c-0.16-0.638-0.24-1.446-0.24-2.426V30.683
		c0-2.232-0.268-4.117-0.803-5.654s-1.338-2.785-2.408-3.741c-1.071-0.957-2.404-1.645-3.998-2.067
		c-1.594-0.421-3.462-0.632-5.604-0.632c-1.73,0-3.359,0.125-4.885,0.376c-1.526,0.251-2.865,0.644-4.015,1.179
		c-1.15,0.536-2.056,1.225-2.716,2.067c-0.662,0.843-0.991,1.868-0.991,3.075c0,1.618,0.507,2.756,1.521,3.417
		c1.014,0.661,2.488,0.991,4.424,0.991c0-1.093,0.08-2.106,0.24-3.041c0.158-0.934,0.472-1.743,0.939-2.426
		c0.466-0.684,1.115-1.213,1.947-1.589c0.831-0.376,1.918-0.563,3.263-0.563c1.435,0,2.579,0.21,3.434,0.632
		c0.854,0.422,1.509,1.014,1.964,1.777c0.456,0.763,0.752,1.674,0.889,2.733s0.205,2.216,0.205,3.468v4.203l-5.809,0.205
		c-5.353,0.16-9.35,1.139-11.992,2.938c-2.643,1.8-3.963,4.556-3.963,8.269c0,1.913,0.273,3.57,0.82,4.971s1.303,2.562,2.271,3.485
		s2.119,1.605,3.451,2.05s2.772,0.666,4.322,0.666c1.457,0,2.704-0.165,3.74-0.495c1.037-0.33,1.965-0.791,2.785-1.384
		c0.82-0.592,1.572-1.299,2.255-2.118c0.683-0.82,1.39-1.72,2.118-2.699h0.581l1.093,6.013h8.558h0.907h10.299l1.23-5.467h0.443
		c0.502,0.912,1.088,1.743,1.76,2.494c0.672,0.752,1.447,1.401,2.324,1.948c0.876,0.546,1.861,0.968,2.955,1.265
		c1.094,0.295,2.312,0.443,3.656,0.443c2.3,0,4.338-0.381,6.115-1.145c1.776-0.763,3.268-1.941,4.476-3.536
		c1.207-1.594,2.124-3.622,2.751-6.081c0.625-2.461,0.939-5.375,0.939-8.747C171.175,34.612,170.86,31.72,170.235,29.283z
		 M123.087,43.427c0,1.481-0.217,2.825-0.648,4.032c-0.434,1.207-1.055,2.232-1.863,3.074c-0.809,0.843-1.787,1.492-2.938,1.947
		c-1.15,0.456-2.432,0.684-3.844,0.684c-1.937,0-3.365-0.541-4.288-1.623s-1.384-2.716-1.384-4.902c0-1.367,0.176-2.574,0.529-3.622
		c0.354-1.047,0.939-1.93,1.76-2.648c0.82-0.717,1.896-1.275,3.229-1.674c1.333-0.398,2.99-0.644,4.972-0.735l4.476-0.205V43.427z
		 M163.897,44.401c-0.32,1.879-0.826,3.457-1.521,4.732c-0.694,1.275-1.583,2.237-2.664,2.887c-1.082,0.648-2.398,0.974-3.946,0.974
		c-1.845,0-3.378-0.325-4.596-0.974c-1.219-0.649-2.198-1.611-2.938-2.887s-1.264-2.848-1.571-4.715
		c-0.308-1.868-0.462-4.02-0.462-6.458c0-2.528,0.154-4.726,0.462-6.594s0.825-3.417,1.555-4.646c0.729-1.23,1.702-2.147,2.921-2.75
		c1.219-0.603,2.738-0.905,4.562-0.905c1.548,0,2.875,0.307,3.979,0.922c1.105,0.615,2.005,1.538,2.699,2.768
		c0.695,1.23,1.201,2.773,1.521,4.629c0.318,1.856,0.478,4.026,0.478,6.509C164.375,40.353,164.216,42.522,163.897,44.401z"/>
	<linearGradient id="Shading_12_" gradientUnits="userSpaceOnUse" x1="83.9102" y1="1.9014" x2="83.9102" y2="58.4366">
		<stop  offset="0" style="stop-color:#6D6E71"/>
		<stop  offset="1" style="stop-color:#000000"/>
	</linearGradient>
	<path id="Shading_5_" fill="url(#Shading_12_)" d="M101.206,53.848c-0.798,0-1.543-0.057-2.238-0.171s-1.304-0.347-1.828-0.7
		c-0.523-0.354-0.934-0.859-1.229-1.521c-0.296-0.66-0.444-1.537-0.444-2.63V3.624H82.243v2.938h0.889
		c0.774,0,1.509,0.051,2.204,0.154c0.694,0.103,1.304,0.325,1.827,0.667c0.524,0.341,0.939,0.826,1.248,1.452
		c0.307,0.627,0.461,1.452,0.461,2.477v37.515c0,1.093-0.154,1.97-0.461,2.63c-0.309,0.662-0.718,1.168-1.23,1.521
		c-0.512,0.354-1.116,0.586-1.811,0.7c-0.462,0.076-0.954,0.117-1.46,0.142c-0.506-0.025-0.998-0.066-1.46-0.142
		c-0.695-0.114-1.304-0.347-1.828-0.7c-0.523-0.354-0.934-0.859-1.229-1.521c-0.296-0.66-0.444-1.537-0.444-2.63V3.624H65.726v2.938
		h0.889c0.774,0,1.509,0.051,2.204,0.154c0.694,0.103,1.304,0.325,1.827,0.667c0.524,0.341,0.939,0.826,1.248,1.452
		c0.307,0.627,0.461,1.452,0.461,2.477v37.515c0,1.093-0.154,1.97-0.461,2.63c-0.309,0.662-0.718,1.168-1.23,1.521
		c-0.512,0.354-1.116,0.586-1.811,0.7c-0.695,0.114-1.441,0.171-2.238,0.171h-0.889v2.938h16.518h3.334h16.518v-2.938H101.206z"/>
	<linearGradient id="Shading_13_" gradientUnits="userSpaceOnUse" x1="49.7886" y1="1.9014" x2="49.7886" y2="58.4369">
		<stop  offset="0" style="stop-color:#6D6E71"/>
		<stop  offset="1" style="stop-color:#000000"/>
	</linearGradient>
	<path id="Shading_7_" fill="url(#Shading_13_)" d="M66.12,37.96c0,6.583-1.395,11.479-4.186,14.691
		c-2.789,3.212-6.873,4.817-12.248,4.817c-2.527,0-4.795-0.398-6.799-1.195s-3.707-2.004-5.107-3.622
		c-1.401-1.616-2.473-3.649-3.212-6.099c-0.741-2.448-1.11-5.312-1.11-8.593c0-6.537,1.384-11.399,4.15-14.589
		c2.768-3.188,6.862-4.783,12.283-4.783c2.528,0,4.795,0.393,6.799,1.179c2.004,0.786,3.707,1.982,5.108,3.587
		c1.4,1.606,2.471,3.622,3.212,6.048C65.75,31.828,66.12,34.681,66.12,37.96z M40.223,37.96c0,2.597,0.171,4.886,0.513,6.868
		c0.342,1.98,0.894,3.639,1.656,4.971c0.764,1.332,1.754,2.34,2.973,3.023s2.705,1.025,4.459,1.025s3.234-0.342,4.441-1.025
		s2.188-1.691,2.938-3.023c0.752-1.332,1.292-2.99,1.623-4.971c0.33-1.982,0.495-4.271,0.495-6.868c0-2.596-0.17-4.874-0.512-6.833
		c-0.342-1.958-0.889-3.593-1.641-4.903c-0.752-1.31-1.736-2.294-2.955-2.955s-2.705-0.991-4.459-0.991s-3.234,0.331-4.441,0.991
		s-2.187,1.646-2.938,2.955c-0.752,1.31-1.299,2.944-1.641,4.903C40.394,33.087,40.223,35.364,40.223,37.96z"/>
	<linearGradient id="Shading_14_" gradientUnits="userSpaceOnUse" x1="18.1191" y1="1.9014" x2="18.1191" y2="58.4369">
		<stop  offset="0" style="stop-color:#6D6E71"/>
		<stop  offset="1" style="stop-color:#000000"/>
	</linearGradient>
	<path id="Shading_6_" fill="url(#Shading_14_)" d="M20.152,57.469c-2.323,0-4.465-0.358-6.423-1.076
		c-1.959-0.717-3.645-1.85-5.057-3.399c-1.413-1.549-2.512-3.536-3.297-5.962c-0.786-2.426-1.18-5.358-1.18-8.798
		c0-3.735,0.394-6.861,1.18-9.378c0.785-2.517,1.879-4.538,3.279-6.064c1.4-1.526,3.053-2.608,4.954-3.246s3.958-0.957,6.167-0.957
		c1.457,0,2.91,0.143,4.355,0.427c1.447,0.285,2.751,0.723,3.912,1.315c1.162,0.593,2.107,1.338,2.836,2.238
		c0.729,0.9,1.094,1.954,1.094,3.161c0,1.617-0.524,2.756-1.572,3.417c-1.047,0.661-2.607,0.991-4.68,0.991
		c0-1.093-0.092-2.129-0.273-3.109c-0.184-0.979-0.496-1.839-0.939-2.579c-0.444-0.74-1.049-1.321-1.811-1.743
		c-0.764-0.421-1.738-0.632-2.922-0.632c-1.344,0-2.557,0.25-3.639,0.751c-1.082,0.501-2.01,1.367-2.785,2.597
		c-0.773,1.23-1.366,2.881-1.775,4.954c-0.41,2.073-0.615,4.669-0.615,7.79c0,4.966,0.825,8.667,2.477,11.104
		s4.356,3.655,8.115,3.655c2.163,0,4.053-0.455,5.671-1.366c1.617-0.911,2.824-2.084,3.622-3.52
		c0.342,0.273,0.625,0.639,0.854,1.094c0.228,0.455,0.342,1.002,0.342,1.64c0,0.798-0.251,1.595-0.752,2.392
		s-1.246,1.516-2.238,2.152c-0.99,0.639-2.227,1.156-3.707,1.555S22.134,57.469,20.152,57.469z"/>
</g>
</svg>
