<?xml version="1.0" encoding="utf-8"?>
<!-- Generator: Adobe Illustrator 14.0.0, SVG Export Plug-In . SVG Version: 6.00 Build 43363)  -->
<!DOCTYPE svg PUBLIC "-//W3C//DTD SVG 1.1//EN" "http://www.w3.org/Graphics/SVG/1.1/DTD/svg11.dtd">
<svg version="1.1" id="Layer_1" xmlns="http://www.w3.org/2000/svg" xmlns:xlink="http://www.w3.org/1999/xlink" x="0px" y="0px"
	 width="136px" height="32px" viewBox="0 0 136 32" enable-background="new 0 0 136 32" xml:space="preserve">
<g>
	<linearGradient id="Shading_1_" gradientUnits="userSpaceOnUse" x1="128.2246" y1="0.3105" x2="128.2246" y2="31.2768">
		<stop  offset="0" style="stop-color:#4ABAEB"/>
		<stop  offset="1" style="stop-color:#0480B7"/>
	</linearGradient>
	<path id="Shading_2_" fill="url(#Shading_1_)" d="M131.715,28.726c0.463,0,0.885-0.024,1.273-0.075
		c0.387-0.05,0.779-0.112,1.178-0.187v1.684c-0.162,0.074-0.373,0.15-0.635,0.224c-0.262,0.075-0.547,0.141-0.852,0.198
		c-0.307,0.055-0.627,0.099-0.965,0.13c-0.336,0.03-0.654,0.047-0.953,0.047c-0.975,0-1.809-0.103-2.508-0.31
		c-0.699-0.205-1.273-0.538-1.723-1.001c-0.449-0.462-0.781-1.071-1-1.833c-0.219-0.761-0.328-1.69-0.328-2.787V12.014h-2.92v-1.535
		c0.461,0,0.971-0.093,1.525-0.281c0.555-0.187,1.045-0.499,1.471-0.935c0.436-0.475,0.787-1.04,1.055-1.694
		c0.27-0.655,0.504-1.476,0.703-2.461h1.76v4.715h5.016v2.19h-5.016v12.913c0,1.309,0.264,2.27,0.793,2.883
		C130.121,28.419,130.83,28.726,131.715,28.726z"/>
	<linearGradient id="Shading_9_" gradientUnits="userSpaceOnUse" x1="108.5742" y1="0.3105" x2="108.5742" y2="31.276">
		<stop  offset="0" style="stop-color:#4ABAEB"/>
		<stop  offset="1" style="stop-color:#0480B7"/>
	</linearGradient>
	<path id="Shading_3_" fill="url(#Shading_9_)" d="M123.398,28.763c-0.426,0-0.83-0.031-1.219-0.094
		c-0.385-0.062-0.719-0.189-0.998-0.383c-0.283-0.193-0.506-0.471-0.676-0.834c-0.168-0.361-0.252-0.842-0.252-1.441V9.824h-6.633
		h-0.215h-8.244v1.61c0.639,0,1.109,0.046,1.414,0.14c0.305,0.094,0.459,0.303,0.459,0.627c0,0.187-0.031,0.384-0.094,0.589
		s-0.176,0.44-0.336,0.702c-0.164,0.262-0.379,0.568-0.648,0.917c-0.268,0.35-0.605,0.755-1.018,1.216l-4.791,5.241
		c0.023-0.662,0.049-1.292,0.074-1.891c0.025-0.524,0.045-1.058,0.057-1.601c0.012-0.542,0.02-0.988,0.02-1.337V1.254h-7.055v1.609
		h0.299c0.422,0,0.826,0.028,1.207,0.085c0.381,0.056,0.713,0.177,1,0.365c0.287,0.187,0.516,0.452,0.684,0.794
		c0.168,0.343,0.254,0.796,0.254,1.357v20.546c0,0.6-0.086,1.08-0.254,1.441c-0.168,0.363-0.393,0.641-0.674,0.834
		s-0.611,0.32-0.992,0.383s-0.789,0.094-1.225,0.094h-0.299v1.608h10.311v-1.608h-0.113c-0.424,0-0.826-0.029-1.207-0.084
		c-0.381-0.056-0.713-0.171-1-0.347c-0.289-0.175-0.516-0.435-0.684-0.776s-0.252-0.795-0.252-1.357v-3.461l2.824-2.096l3.836,6.006
		c0.537,0.85,1.023,1.521,1.461,2.013c0.436,0.492,0.916,0.866,1.441,1.122c0.521,0.255,1.143,0.419,1.861,0.486
		c0.375,0.035,0.807,0.062,1.289,0.079v0.023h1.453h0.541h8.898v-1.608H123.398z M116.66,26.198c0,0.562-0.082,1.016-0.252,1.357
		c-0.168,0.342-0.396,0.602-0.682,0.776c-0.287,0.176-0.621,0.291-1.002,0.347c-0.121,0.018-0.25,0.027-0.377,0.04
		c-0.637-0.092-1.215-0.341-1.727-0.76c-0.656-0.537-1.314-1.317-1.975-2.34l-5.109-7.579l2.695-3.032
		c0.998-1.135,1.924-2.015,2.777-2.638c0.846-0.617,1.705-0.926,2.58-0.933c0.398,0.003,0.777,0.032,1.135,0.091
		c0.381,0.063,0.715,0.187,1.002,0.375c0.285,0.187,0.514,0.452,0.682,0.795c0.17,0.343,0.252,0.795,0.252,1.356V26.198z"/>
	<linearGradient id="Shading_10_" gradientUnits="userSpaceOnUse" x1="118.2988" y1="0.3105" x2="118.2988" y2="31.2752">
		<stop  offset="0" style="stop-color:#4ABAEB"/>
		<stop  offset="1" style="stop-color:#0480B7"/>
	</linearGradient>
	<path id="Shading_8_" fill="url(#Shading_10_)" d="M116.756,5.464c0.199,0.188,0.43,0.322,0.691,0.402
		c0.264,0.081,0.549,0.122,0.861,0.122c0.301,0,0.58-0.041,0.842-0.122c0.262-0.081,0.488-0.215,0.682-0.402
		c0.193-0.187,0.35-0.431,0.469-0.73c0.117-0.3,0.178-0.674,0.178-1.123c0-0.449-0.061-0.824-0.178-1.123
		c-0.119-0.299-0.275-0.542-0.469-0.729c-0.193-0.188-0.42-0.318-0.682-0.393c-0.262-0.075-0.541-0.112-0.842-0.112
		c-0.312,0-0.598,0.037-0.861,0.112c-0.262,0.075-0.492,0.206-0.691,0.393c-0.201,0.187-0.355,0.43-0.469,0.729
		c-0.111,0.299-0.168,0.674-0.168,1.123c0,0.449,0.057,0.823,0.168,1.123C116.4,5.034,116.555,5.277,116.756,5.464z"/>
	<linearGradient id="Shading_11_" gradientUnits="userSpaceOnUse" x1="74.1611" y1="0.3105" x2="74.1611" y2="31.2767">
		<stop  offset="0" style="stop-color:#6D6E70"/>
		<stop  offset="1" style="stop-color:#231F20"/>
	</linearGradient>
	<path id="Shading_4_" fill="url(#Shading_11_)" d="M92.775,15.308c-0.342-1.335-0.844-2.436-1.506-3.303
		c-0.662-0.867-1.479-1.509-2.451-1.927s-2.09-0.627-3.35-0.627c-0.748,0-1.422,0.09-2.021,0.271
		c-0.598,0.181-1.135,0.437-1.609,0.767c-0.473,0.332-0.893,0.734-1.254,1.208c-0.361,0.474-0.686,1.004-0.973,1.59h-0.15
		c0.025-0.636,0.051-1.254,0.076-1.852c0.023-0.524,0.043-1.07,0.055-1.638c0.012-0.567,0.02-1.069,0.02-1.507V1.254h-7.055v1.609
		h0.299c0.424,0,0.826,0.028,1.207,0.085c0.381,0.056,0.715,0.177,1.002,0.365c0.287,0.187,0.514,0.452,0.684,0.794
		C75.916,4.451,76,4.903,76,5.464v20.546c0,0.6-0.084,1.08-0.252,1.441c-0.17,0.363-0.395,0.641-0.676,0.834
		c-0.279,0.193-0.609,0.32-0.992,0.383c-0.365,0.061-0.756,0.09-1.174,0.092c-0.408-0.002-0.764-0.045-1.061-0.129
		c-0.305-0.087-0.553-0.236-0.738-0.45c-0.188-0.211-0.326-0.492-0.412-0.841c-0.088-0.35-0.131-0.792-0.131-1.33v-9.936
		c0-1.223-0.146-2.254-0.439-3.096c-0.293-0.843-0.734-1.526-1.32-2.05c-0.587-0.524-1.317-0.901-2.189-1.132
		c-0.873-0.23-1.897-0.346-3.07-0.346c-0.948,0-1.84,0.068-2.675,0.206c-0.837,0.138-1.57,0.353-2.2,0.645
		c-0.629,0.294-1.126,0.671-1.487,1.133c-0.362,0.461-0.543,1.023-0.543,1.684c0,0.887,0.277,1.51,0.833,1.871
		c0.556,0.362,1.363,0.543,2.423,0.543c0-0.599,0.044-1.154,0.131-1.665c0.086-0.512,0.259-0.955,0.515-1.329
		c0.256-0.375,0.611-0.664,1.067-0.87c0.455-0.206,1.051-0.309,1.787-0.309c0.786,0,1.413,0.115,1.881,0.346
		c0.468,0.231,0.826,0.555,1.076,0.973c0.249,0.418,0.411,0.917,0.486,1.497c0.075,0.58,0.112,1.214,0.112,1.899v2.302l-3.181,0.112
		c-2.932,0.087-5.121,0.623-6.569,1.608c-1.447,0.986-2.17,2.497-2.17,4.529c0,1.048,0.15,1.956,0.45,2.723
		c0.299,0.767,0.714,1.403,1.244,1.908c0.53,0.507,1.161,0.88,1.891,1.124c0.729,0.242,1.518,0.364,2.367,0.364
		c0.798,0,1.48-0.091,2.049-0.271c0.567-0.181,1.076-0.433,1.525-0.757s0.861-0.711,1.235-1.162c0.374-0.449,0.761-0.941,1.16-1.478
		h0.319l0.599,3.293h4.687h0.498h5.639l0.674-2.993h0.244c0.273,0.5,0.596,0.954,0.963,1.365c0.369,0.412,0.793,0.768,1.273,1.066
		c0.48,0.301,1.02,0.531,1.619,0.694c0.6,0.161,1.266,0.242,2.002,0.242c1.26,0,2.377-0.208,3.35-0.627
		c0.973-0.418,1.789-1.063,2.451-1.938c0.662-0.873,1.164-1.983,1.506-3.33c0.344-1.348,0.516-2.944,0.516-4.791
		C93.291,18.228,93.119,16.642,92.775,15.308z M66.952,23.055c0,0.812-0.119,1.548-0.355,2.21c-0.238,0.66-0.578,1.222-1.021,1.684
		c-0.442,0.46-0.978,0.816-1.608,1.065c-0.63,0.249-1.332,0.375-2.105,0.375c-1.061,0-1.843-0.296-2.349-0.89
		c-0.506-0.592-0.758-1.488-0.758-2.684c0-0.75,0.096-1.41,0.29-1.986c0.193-0.572,0.514-1.057,0.963-1.449s1.039-0.697,1.769-0.917
		c0.73-0.218,1.638-0.353,2.723-0.402l2.452-0.112V23.055z M89.305,23.588c-0.174,1.03-0.453,1.894-0.832,2.593
		c-0.381,0.698-0.869,1.225-1.461,1.581c-0.592,0.354-1.312,0.533-2.16,0.533c-1.012,0-1.85-0.179-2.518-0.533
		c-0.668-0.356-1.205-0.883-1.609-1.581c-0.404-0.699-0.691-1.561-0.861-2.583c-0.168-1.022-0.252-2.202-0.252-3.537
		c0-1.384,0.084-2.589,0.252-3.612c0.17-1.023,0.453-1.871,0.852-2.544c0.4-0.673,0.934-1.176,1.602-1.507
		c0.666-0.33,1.498-0.495,2.496-0.495c0.85,0,1.576,0.167,2.182,0.505c0.604,0.336,1.098,0.842,1.479,1.516
		c0.379,0.673,0.658,1.52,0.832,2.536c0.174,1.017,0.262,2.206,0.262,3.565C89.566,21.371,89.479,22.56,89.305,23.588z"/>
	<linearGradient id="Shading_12_" gradientUnits="userSpaceOnUse" x1="45.4946" y1="0.3105" x2="45.4946" y2="31.276">
		<stop  offset="0" style="stop-color:#6D6E70"/>
		<stop  offset="1" style="stop-color:#231F20"/>
	</linearGradient>
	<path id="Shading_5_" fill="url(#Shading_12_)" d="M54.968,28.763c-0.438,0-0.846-0.031-1.227-0.094s-0.714-0.189-1.001-0.383
		s-0.511-0.471-0.673-0.834c-0.163-0.361-0.244-0.842-0.244-1.441V1.254h-7.242v1.609h0.487c0.424,0,0.826,0.028,1.207,0.085
		c0.38,0.056,0.714,0.177,1,0.365c0.288,0.187,0.515,0.452,0.684,0.794c0.168,0.343,0.253,0.796,0.253,1.357v20.546
		c0,0.6-0.085,1.08-0.253,1.441c-0.169,0.363-0.393,0.641-0.674,0.834c-0.28,0.193-0.611,0.32-0.992,0.383
		c-0.253,0.042-0.522,0.064-0.799,0.078c-0.277-0.014-0.547-0.036-0.8-0.078c-0.381-0.062-0.714-0.189-1.001-0.383
		s-0.511-0.471-0.673-0.834c-0.163-0.361-0.244-0.842-0.244-1.441V1.254h-7.242v1.609h0.487c0.424,0,0.827,0.028,1.207,0.085
		c0.381,0.056,0.715,0.177,1.001,0.365c0.288,0.187,0.515,0.452,0.684,0.794c0.168,0.343,0.252,0.796,0.252,1.357v20.546
		c0,0.6-0.084,1.08-0.252,1.441c-0.169,0.363-0.394,0.641-0.674,0.834c-0.28,0.193-0.611,0.32-0.992,0.383
		c-0.38,0.062-0.789,0.094-1.226,0.094h-0.487v1.608h9.047h1.826h9.047v-1.608H54.968z"/>
	<linearGradient id="Shading_13_" gradientUnits="userSpaceOnUse" x1="26.8052" y1="0.311" x2="26.8052" y2="31.2768">
		<stop  offset="0" style="stop-color:#6D6E70"/>
		<stop  offset="1" style="stop-color:#231F20"/>
	</linearGradient>
	<path id="Shading_7_" fill="url(#Shading_13_)" d="M35.75,20.061c0,3.606-0.764,6.288-2.292,8.046
		c-1.527,1.761-3.765,2.64-6.708,2.64c-1.384,0-2.626-0.219-3.724-0.654c-1.098-0.437-2.031-1.098-2.797-1.985
		c-0.769-0.884-1.355-1.998-1.76-3.339c-0.406-1.342-0.608-2.909-0.608-4.707c0-3.581,0.759-6.243,2.273-7.991
		c1.516-1.746,3.759-2.619,6.728-2.619c1.385,0,2.626,0.215,3.724,0.646c1.098,0.43,2.031,1.085,2.798,1.964
		c0.767,0.88,1.354,1.984,1.759,3.312C35.548,16.702,35.75,18.264,35.75,20.061z M21.566,20.061c0,1.423,0.094,2.677,0.281,3.763
		c0.187,1.084,0.489,1.992,0.907,2.723c0.418,0.729,0.961,1.281,1.628,1.656c0.668,0.373,1.482,0.561,2.443,0.561
		c0.96,0,1.771-0.188,2.433-0.561c0.661-0.375,1.197-0.928,1.609-1.656c0.412-0.73,0.708-1.639,0.889-2.723
		c0.181-1.086,0.271-2.34,0.271-3.763c0-1.422-0.093-2.669-0.28-3.743c-0.188-1.072-0.486-1.968-0.899-2.686
		c-0.412-0.717-0.951-1.256-1.619-1.618c-0.667-0.362-1.481-0.543-2.442-0.543c-0.96,0-1.771,0.181-2.433,0.543
		c-0.661,0.362-1.197,0.901-1.608,1.618c-0.412,0.718-0.711,1.613-0.898,2.686C21.66,17.392,21.566,18.639,21.566,20.061z"/>
	<linearGradient id="Shading_14_" gradientUnits="userSpaceOnUse" x1="9.4595" y1="0.311" x2="9.4595" y2="31.2768">
		<stop  offset="0" style="stop-color:#6D6E70"/>
		<stop  offset="1" style="stop-color:#231F20"/>
	</linearGradient>
	<path id="Shading_6_" fill="url(#Shading_14_)" d="M10.573,30.746c-1.272,0-2.446-0.196-3.519-0.589s-1.996-1.014-2.77-1.862
		C3.511,27.446,2.91,26.358,2.48,25.03c-0.431-1.329-0.646-2.936-0.646-4.82c0-2.045,0.215-3.758,0.646-5.137
		c0.43-1.378,1.029-2.485,1.795-3.321c0.768-0.836,1.672-1.428,2.714-1.777c1.042-0.35,2.167-0.524,3.377-0.524
		c0.798,0,1.595,0.078,2.386,0.233c0.792,0.156,1.506,0.396,2.142,0.72c0.637,0.325,1.155,0.733,1.554,1.226
		c0.399,0.493,0.599,1.07,0.599,1.731c0,0.886-0.287,1.51-0.861,1.872c-0.574,0.362-1.428,0.542-2.563,0.542
		c0-0.598-0.05-1.166-0.149-1.703c-0.102-0.536-0.272-1.007-0.515-1.413c-0.243-0.405-0.574-0.723-0.992-0.954
		c-0.418-0.231-0.953-0.346-1.601-0.346c-0.736,0-1.4,0.137-1.993,0.411c-0.593,0.275-1.101,0.749-1.525,1.422
		c-0.424,0.674-0.748,1.578-0.973,2.713c-0.225,1.136-0.337,2.558-0.337,4.267c0,2.721,0.453,4.748,1.357,6.082
		c0.905,1.336,2.386,2.002,4.445,2.002c1.185,0,2.22-0.249,3.107-0.748c0.885-0.5,1.545-1.141,1.983-1.928
		c0.188,0.15,0.343,0.351,0.468,0.6c0.125,0.249,0.187,0.549,0.187,0.897c0,0.438-0.137,0.874-0.412,1.311
		c-0.274,0.437-0.682,0.831-1.225,1.179c-0.543,0.35-1.22,0.634-2.031,0.852C12.606,30.638,11.658,30.746,10.573,30.746z"/>
</g>
</svg>
