<?xml version="1.0" encoding="utf-8"?>
<!DOCTYPE svg PUBLIC "-//W3C//DTD SVG 1.1//EN" "http://www.w3.org/Graphics/SVG/1.1/DTD/svg11.dtd">
<svg version="1.1" id="svg2" xmlns:svg="http://www.w3.org/2000/svg" xmlns="http://www.w3.org/2000/svg" xmlns:xlink="http://www.w3.org/1999/xlink" x="0px" y="0px" width="48px" height="48px" viewBox="0 0 48 48" enable-background="new 0 0 48 48" xml:space="preserve">
	<path d="M38.232,35.441l-8.251-8.25c1.34-1.846,2.139-4.11,2.139-6.565c0-6.174-4.992-11.166-11.165-11.166 S9.769,14.452,9.769,20.626c0,6.173,5.012,11.187,11.186,11.187c2.13,0,4.112-0.607,5.805-1.644l8.372,8.372L38.232,35.441z M20.953,27.857c-3.987,0-7.23-3.241-7.23-7.229c0-3.988,3.242-7.214,7.23-7.214s7.213,3.226,7.213,7.214 C28.166,24.616,24.939,27.857,20.953,27.857z" />
</svg>
