<?xml version="1.0" encoding="utf-8"?>
<!-- Generator: Adobe Illustrator 14.0.0, SVG Export Plug-In . SVG Version: 6.00 Build 43363)  -->
<!DOCTYPE svg PUBLIC "-//W3C//DTD SVG 1.1//EN" "http://www.w3.org/Graphics/SVG/1.1/DTD/svg11.dtd">
<svg version="1.1" id="Layer_1" xmlns="http://www.w3.org/2000/svg" xmlns:xlink="http://www.w3.org/1999/xlink" x="0px" y="0px"
	 width="16px" height="16px" viewBox="0 0 16 16" enable-background="new 0 0 16 16" xml:space="preserve">
<linearGradient id="Magnifying_Glass_1_" gradientUnits="userSpaceOnUse" x1="7.9995" y1="1.4668" x2="7.9995" y2="13.5375">
	<stop  offset="0" style="stop-color:#999999"/>
	<stop  offset="1" style="stop-color:#666666"/>
</linearGradient>
<path id="Magnifying_Glass" fill="url(#Magnifying_Glass_1_)" d="M16,14.399l-4.265-4.266c1.757-2.515,1.516-6.001-0.729-8.246
	c-2.518-2.518-6.6-2.518-9.118,0s-2.518,6.601,0,9.118c2.245,2.245,5.731,2.486,8.246,0.729L14.398,16L16,14.399z M3.296,9.598
	c-1.739-1.74-1.739-4.561,0-6.301c1.741-1.74,4.562-1.74,6.302,0c1.74,1.741,1.74,4.562,0,6.301
	C7.857,11.338,5.037,11.338,3.296,9.598z"/>
</svg>
